<mxfile host="app.diagrams.net" modified="2020-12-23T03:34:04.925Z" agent="5.0 (Macintosh; Intel Mac OS X 10_15_7) AppleWebKit/537.36 (KHTML, like Gecko) Chrome/87.0.4280.88 Safari/537.36" etag="D-IPApRaFLVUL2TAKKzN" version="14.1.1" type="github">
  <diagram id="WeuCOITkjchnHoG13xAC" name="Page-1">
    <mxGraphModel dx="946" dy="557" grid="1" gridSize="10" guides="1" tooltips="1" connect="1" arrows="1" fold="1" page="1" pageScale="1" pageWidth="827" pageHeight="1169" math="0" shadow="0">
      <root>
        <mxCell id="0" />
        <mxCell id="1" parent="0" />
        <mxCell id="z0IaeQszJFvxI4K1Mj9s-5" value="Extends" style="endArrow=block;endSize=16;endFill=0;html=1;" edge="1" parent="1">
          <mxGeometry width="160" relative="1" as="geometry">
            <mxPoint x="509.5" y="516" as="sourcePoint" />
            <mxPoint x="509.5" y="416" as="targetPoint" />
          </mxGeometry>
        </mxCell>
        <mxCell id="z0IaeQszJFvxI4K1Mj9s-6" value="Expanded" style="swimlane;fontStyle=1;align=center;verticalAlign=top;childLayout=stackLayout;horizontal=1;startSize=26;horizontalStack=0;resizeParent=1;resizeParentMax=0;resizeLast=0;collapsible=1;marginBottom=0;fillColor=#f5f5f5;strokeColor=#666666;fontColor=#333333;" vertex="1" parent="1">
          <mxGeometry x="430" y="130" width="160" height="86" as="geometry" />
        </mxCell>
        <mxCell id="z0IaeQszJFvxI4K1Mj9s-7" value="    " style="text;strokeColor=#d6b656;fillColor=#fff2cc;align=left;verticalAlign=top;spacingLeft=4;spacingRight=4;overflow=hidden;rotatable=0;points=[[0,0.5],[1,0.5]];portConstraint=eastwest;" vertex="1" parent="z0IaeQszJFvxI4K1Mj9s-6">
          <mxGeometry y="26" width="160" height="26" as="geometry" />
        </mxCell>
        <mxCell id="z0IaeQszJFvxI4K1Mj9s-8" value="" style="line;strokeWidth=1;fillColor=#f5f5f5;align=left;verticalAlign=middle;spacingTop=-1;spacingLeft=3;spacingRight=3;rotatable=0;labelPosition=right;points=[];portConstraint=eastwest;strokeColor=#666666;fontColor=#333333;" vertex="1" parent="z0IaeQszJFvxI4K1Mj9s-6">
          <mxGeometry y="52" width="160" height="8" as="geometry" />
        </mxCell>
        <mxCell id="z0IaeQszJFvxI4K1Mj9s-9" value="+ method(): void" style="text;strokeColor=#6c8ebf;fillColor=#dae8fc;align=left;verticalAlign=top;spacingLeft=4;spacingRight=4;overflow=hidden;rotatable=0;points=[[0,0.5],[1,0.5]];portConstraint=eastwest;" vertex="1" parent="z0IaeQszJFvxI4K1Mj9s-6">
          <mxGeometry y="60" width="160" height="26" as="geometry" />
        </mxCell>
        <mxCell id="z0IaeQszJFvxI4K1Mj9s-10" value="Target" style="swimlane;fontStyle=1;align=center;verticalAlign=top;childLayout=stackLayout;horizontal=1;startSize=26;horizontalStack=0;resizeParent=1;resizeParentMax=0;resizeLast=0;collapsible=1;marginBottom=0;fillColor=#f5f5f5;strokeColor=#666666;fontColor=#333333;" vertex="1" parent="1">
          <mxGeometry x="430" y="510" width="160" height="86" as="geometry" />
        </mxCell>
        <mxCell id="z0IaeQszJFvxI4K1Mj9s-11" value="    " style="text;strokeColor=#d79b00;fillColor=#ffe6cc;align=left;verticalAlign=top;spacingLeft=4;spacingRight=4;overflow=hidden;rotatable=0;points=[[0,0.5],[1,0.5]];portConstraint=eastwest;" vertex="1" parent="z0IaeQszJFvxI4K1Mj9s-10">
          <mxGeometry y="26" width="160" height="26" as="geometry" />
        </mxCell>
        <mxCell id="z0IaeQszJFvxI4K1Mj9s-12" value="" style="line;strokeWidth=1;fillColor=#f5f5f5;align=left;verticalAlign=middle;spacingTop=-1;spacingLeft=3;spacingRight=3;rotatable=0;labelPosition=right;points=[];portConstraint=eastwest;strokeColor=#666666;fontColor=#333333;" vertex="1" parent="z0IaeQszJFvxI4K1Mj9s-10">
          <mxGeometry y="52" width="160" height="8" as="geometry" />
        </mxCell>
        <mxCell id="z0IaeQszJFvxI4K1Mj9s-13" value="+ method(): void" style="text;strokeColor=#6c8ebf;fillColor=#dae8fc;align=left;verticalAlign=top;spacingLeft=4;spacingRight=4;overflow=hidden;rotatable=0;points=[[0,0.5],[1,0.5]];portConstraint=eastwest;" vertex="1" parent="z0IaeQszJFvxI4K1Mj9s-10">
          <mxGeometry y="60" width="160" height="26" as="geometry" />
        </mxCell>
        <mxCell id="z0IaeQszJFvxI4K1Mj9s-16" value="_&amp;Expanded&amp;Minx" style="swimlane;fontStyle=1;align=center;verticalAlign=top;childLayout=stackLayout;horizontal=1;startSize=26;horizontalStack=0;resizeParent=1;resizeParentMax=0;resizeLast=0;collapsible=1;marginBottom=0;fillColor=#f5f5f5;strokeColor=#666666;fontColor=#333333;" vertex="1" parent="1">
          <mxGeometry x="430" y="330" width="160" height="86" as="geometry" />
        </mxCell>
        <mxCell id="z0IaeQszJFvxI4K1Mj9s-17" value="    " style="text;strokeColor=#d6b656;fillColor=#fff2cc;align=left;verticalAlign=top;spacingLeft=4;spacingRight=4;overflow=hidden;rotatable=0;points=[[0,0.5],[1,0.5]];portConstraint=eastwest;" vertex="1" parent="z0IaeQszJFvxI4K1Mj9s-16">
          <mxGeometry y="26" width="160" height="26" as="geometry" />
        </mxCell>
        <mxCell id="z0IaeQszJFvxI4K1Mj9s-18" value="" style="line;strokeWidth=1;fillColor=#f5f5f5;align=left;verticalAlign=middle;spacingTop=-1;spacingLeft=3;spacingRight=3;rotatable=0;labelPosition=right;points=[];portConstraint=eastwest;strokeColor=#666666;fontColor=#333333;" vertex="1" parent="z0IaeQszJFvxI4K1Mj9s-16">
          <mxGeometry y="52" width="160" height="8" as="geometry" />
        </mxCell>
        <mxCell id="z0IaeQszJFvxI4K1Mj9s-19" value="+ method(): void" style="text;strokeColor=#6c8ebf;fillColor=#dae8fc;align=left;verticalAlign=top;spacingLeft=4;spacingRight=4;overflow=hidden;rotatable=0;points=[[0,0.5],[1,0.5]];portConstraint=eastwest;" vertex="1" parent="z0IaeQszJFvxI4K1Mj9s-16">
          <mxGeometry y="60" width="160" height="26" as="geometry" />
        </mxCell>
        <mxCell id="z0IaeQszJFvxI4K1Mj9s-23" value="Extends" style="endArrow=block;endSize=16;endFill=0;html=1;exitX=0.5;exitY=0;exitDx=0;exitDy=0;" edge="1" parent="1" source="z0IaeQszJFvxI4K1Mj9s-16" target="z0IaeQszJFvxI4K1Mj9s-9">
          <mxGeometry width="160" relative="1" as="geometry">
            <mxPoint x="509.5" y="320" as="sourcePoint" />
            <mxPoint x="509.5" y="210" as="targetPoint" />
          </mxGeometry>
        </mxCell>
        <mxCell id="z0IaeQszJFvxI4K1Mj9s-24" value="子类重写父类方法" style="edgeStyle=orthogonalEdgeStyle;rounded=0;orthogonalLoop=1;jettySize=auto;html=1;exitX=1;exitY=0.5;exitDx=0;exitDy=0;endArrow=block;endFill=1;entryX=1;entryY=0.5;entryDx=0;entryDy=0;startArrow=block;startFill=1;" edge="1" parent="1" source="z0IaeQszJFvxI4K1Mj9s-13" target="z0IaeQszJFvxI4K1Mj9s-19">
          <mxGeometry relative="1" as="geometry">
            <mxPoint x="620" y="583" as="targetPoint" />
            <Array as="points">
              <mxPoint x="630" y="583" />
              <mxPoint x="630" y="403" />
            </Array>
          </mxGeometry>
        </mxCell>
        <mxCell id="z0IaeQszJFvxI4K1Mj9s-27" style="edgeStyle=orthogonalEdgeStyle;rounded=0;orthogonalLoop=1;jettySize=auto;html=1;exitX=1;exitY=0.5;exitDx=0;exitDy=0;startArrow=block;startFill=1;endArrow=block;endFill=1;entryX=1;entryY=0.5;entryDx=0;entryDy=0;" edge="1" parent="1" source="z0IaeQszJFvxI4K1Mj9s-19" target="z0IaeQszJFvxI4K1Mj9s-9">
          <mxGeometry relative="1" as="geometry">
            <mxPoint x="660" y="180" as="targetPoint" />
            <Array as="points">
              <mxPoint x="630" y="403" />
              <mxPoint x="630" y="203" />
            </Array>
          </mxGeometry>
        </mxCell>
        <mxCell id="z0IaeQszJFvxI4K1Mj9s-28" value="子类重写父类方法" style="edgeLabel;html=1;align=center;verticalAlign=middle;resizable=0;points=[];" vertex="1" connectable="0" parent="z0IaeQszJFvxI4K1Mj9s-27">
          <mxGeometry x="0.0621" y="-3" relative="1" as="geometry">
            <mxPoint as="offset" />
          </mxGeometry>
        </mxCell>
        <mxCell id="z0IaeQszJFvxI4K1Mj9s-33" value="&lt;div style=&quot;font-size: 16px&quot;&gt;&amp;nbsp; &amp;nbsp; void main() {&lt;/div&gt;&lt;div style=&quot;font-size: 16px&quot;&gt;&amp;nbsp; &amp;nbsp; &amp;nbsp; Target target = Target();&lt;/div&gt;&lt;div style=&quot;font-size: 16px&quot;&gt;&amp;nbsp; &amp;nbsp; &amp;nbsp; target.method();&lt;/div&gt;&lt;div style=&quot;font-size: 16px&quot;&gt;&amp;nbsp; &amp;nbsp; }&lt;/div&gt;&lt;div style=&quot;font-size: 16px&quot;&gt;&lt;br style=&quot;font-size: 16px&quot;&gt;&lt;/div&gt;&lt;div style=&quot;font-size: 16px&quot;&gt;&amp;nbsp; &amp;nbsp; mixin Minx {&lt;/div&gt;&lt;div style=&quot;font-size: 16px&quot;&gt;&amp;nbsp; &amp;nbsp; &amp;nbsp; void method() {&lt;/div&gt;&lt;div style=&quot;font-size: 16px&quot;&gt;&amp;nbsp; &amp;nbsp; &amp;nbsp; &amp;nbsp; print(&#39;Minx&#39;);&lt;/div&gt;&lt;div style=&quot;font-size: 16px&quot;&gt;&amp;nbsp; &amp;nbsp; &amp;nbsp; }&lt;/div&gt;&lt;div style=&quot;font-size: 16px&quot;&gt;&amp;nbsp; &amp;nbsp; }&lt;/div&gt;&lt;div style=&quot;font-size: 16px&quot;&gt;&lt;br style=&quot;font-size: 16px&quot;&gt;&lt;/div&gt;&lt;div style=&quot;font-size: 16px&quot;&gt;&amp;nbsp; &amp;nbsp; class Expanded{&lt;/div&gt;&lt;div style=&quot;font-size: 16px&quot;&gt;&amp;nbsp; &amp;nbsp; &amp;nbsp;void method(){&lt;/div&gt;&lt;div style=&quot;font-size: 16px&quot;&gt;&amp;nbsp; &amp;nbsp; &amp;nbsp; &amp;nbsp; print(&#39;Expanded&#39;);&lt;/div&gt;&lt;div style=&quot;font-size: 16px&quot;&gt;&amp;nbsp; &amp;nbsp; &amp;nbsp;}&lt;/div&gt;&lt;div style=&quot;font-size: 16px&quot;&gt;&amp;nbsp; &amp;nbsp;}&lt;/div&gt;&lt;div style=&quot;font-size: 16px&quot;&gt;&lt;br style=&quot;font-size: 16px&quot;&gt;&lt;/div&gt;&lt;div style=&quot;font-size: 16px&quot;&gt;&amp;nbsp; &amp;nbsp; class Target extends Expanded with Minx{}&lt;/div&gt;" style="text;html=1;align=left;verticalAlign=middle;resizable=0;points=[];autosize=1;fontSize=16;fillColor=#ffe6cc;strokeColor=#d79b00;" vertex="1" parent="1">
          <mxGeometry x="20" y="216" width="340" height="350" as="geometry" />
        </mxCell>
      </root>
    </mxGraphModel>
  </diagram>
</mxfile>
